<svg xmlns="http://www.w3.org/2000/svg" viewBox="0 0 960 500" font-family="-apple-system, BlinkMacSystemFont, 'Segoe UI', Roboto, Helvetica, Arial, sans-serif" role="img" aria-label="Horizontal bar chart: UFFS daemon HOT queries are 16x faster total than UFFS C++ reference per-invocation MFT reread">
  <title>Daemon HOT vs per-invocation MFT reread — 16× faster total</title>
  <desc>Horizontal grouped bar chart comparing UFFS Rust daemon-HOT steady-state query time (blue, all in-memory) against the UFFS C++ reference full-MFT-reread query time (orange, no daemon) across 6 NTFS drives. Rust bars are barely visible slivers next to the orange C++ bars. Total: Rust 10.1 s vs C++ 161.0 s — 16× faster. Data from docs/benchmarks/raw/2026-04-v0.5.66_cold-parity-per-drive.txt.</desc>

  <!-- Card background -->
  <rect x="0" y="0" width="960" height="500" fill="#ffffff"/>
  <rect x="0.5" y="0.5" width="959" height="499" fill="none" stroke="#e2e8f0" stroke-width="1"/>

  <!-- Title + subtitle -->
  <text x="480" y="34" text-anchor="middle" font-size="19" font-weight="700" fill="#0f172a">Daemon HOT vs per-invocation MFT reread — 16× faster total</text>
  <text x="480" y="56" text-anchor="middle" font-size="13" fill="#475569">Every C++ query re-reads all attached MFTs. Every UFFS Rust query serves from in-memory compact index.</text>

  <!-- Legend -->
  <g transform="translate(190, 76)" font-size="12" fill="#334155">
    <rect x="0" y="2" width="14" height="12" fill="#2563eb"/>
    <text x="20" y="12">UFFS Rust v0.5.66 (daemon HOT: preloaded once, served from memory)</text>
    <rect x="0" y="20" width="14" height="12" fill="#ea580c"/>
    <text x="20" y="30">UFFS C++ reference (no daemon: re-reads all attached MFTs every invocation)</text>
  </g>

  <!-- Axis: 0 to 55 seconds. Plot area x=160 to x=800 = 640 px. 1 s = 11.636 px -->
  <g font-size="11" fill="#64748b">
    <line x1="160" y1="130" x2="160" y2="420" stroke="#cbd5e1" stroke-width="1"/>
    <line x1="160" y1="420" x2="800" y2="420" stroke="#cbd5e1" stroke-width="1"/>
    <line x1="276" y1="130" x2="276" y2="420" stroke="#e2e8f0" stroke-width="1"/>
    <text x="276" y="438" text-anchor="middle">10</text>
    <line x1="393" y1="130" x2="393" y2="420" stroke="#e2e8f0" stroke-width="1"/>
    <text x="393" y="438" text-anchor="middle">20</text>
    <line x1="509" y1="130" x2="509" y2="420" stroke="#e2e8f0" stroke-width="1"/>
    <text x="509" y="438" text-anchor="middle">30</text>
    <line x1="625" y1="130" x2="625" y2="420" stroke="#e2e8f0" stroke-width="1"/>
    <text x="625" y="438" text-anchor="middle">40</text>
    <line x1="742" y1="130" x2="742" y2="420" stroke="#e2e8f0" stroke-width="1"/>
    <text x="742" y="438" text-anchor="middle">50</text>
    <text x="160" y="438" text-anchor="middle">0</text>
    <text x="480" y="458" text-anchor="middle" font-size="11" fill="#475569">wall-clock seconds for one `*` query — lower is better</text>
  </g>

  <!-- Row 1: C: Rust 1.531, C++ 8.621 -->
  <g font-size="12" fill="#334155">
    <text x="154" y="152" text-anchor="end">C: (3.67 M rec)</text>
    <rect x="160" y="140" width="17.8" height="18" fill="#2563eb"/>
    <rect x="160" y="162" width="100.3" height="18" fill="#ea580c"/>
    <text x="183" y="153" font-size="11" fill="#475569">1.53 s</text>
    <text x="266" y="175" font-size="11" fill="#475569">8.6 s</text>
    <text x="820" y="164" font-size="12" font-weight="700" fill="#059669">5.6×</text>
  </g>
  <!-- Row 2: D: Rust 1.955, C++ 31.668 -->
  <g font-size="12" fill="#334155">
    <text x="154" y="192" text-anchor="end">D: (7.07 M rec)</text>
    <rect x="160" y="180" width="22.7" height="18" fill="#2563eb"/>
    <rect x="160" y="202" width="368.5" height="18" fill="#ea580c"/>
    <text x="188" y="193" font-size="11" fill="#475569">1.96 s</text>
    <text x="534" y="215" font-size="11" fill="#475569">31.7 s</text>
    <text x="820" y="204" font-size="12" font-weight="700" fill="#059669">16.2×</text>
  </g>
  <!-- Row 3: E: Rust 1.242, C++ 42.421 -->
  <g font-size="12" fill="#334155">
    <text x="154" y="232" text-anchor="end">E: (2.93 M rec)</text>
    <rect x="160" y="220" width="14.5" height="18" fill="#2563eb"/>
    <rect x="160" y="242" width="493.6" height="18" fill="#ea580c"/>
    <text x="180" y="233" font-size="11" fill="#475569">1.24 s</text>
    <text x="659" y="255" font-size="11" fill="#475569">42.4 s</text>
    <text x="820" y="244" font-size="12" font-weight="700" fill="#059669">34.2×</text>
  </g>
  <!-- Row 4: F: Rust 0.890, C++ 4.495 -->
  <g font-size="12" fill="#334155">
    <text x="154" y="272" text-anchor="end">F: (2.22 M rec)</text>
    <rect x="160" y="260" width="10.4" height="18" fill="#2563eb"/>
    <rect x="160" y="282" width="52.3" height="18" fill="#ea580c"/>
    <text x="176" y="273" font-size="11" fill="#475569">0.89 s</text>
    <text x="218" y="295" font-size="11" fill="#475569">4.5 s</text>
    <text x="820" y="284" font-size="12" font-weight="700" fill="#059669">5.1×</text>
  </g>
  <!-- Row 5: M: Rust 0.927, C++ 21.955 -->
  <g font-size="12" fill="#334155">
    <text x="154" y="312" text-anchor="end">M: (1.91 M rec)</text>
    <rect x="160" y="300" width="10.8" height="18" fill="#2563eb"/>
    <rect x="160" y="322" width="255.5" height="18" fill="#ea580c"/>
    <text x="176" y="313" font-size="11" fill="#475569">0.93 s</text>
    <text x="421" y="335" font-size="11" fill="#475569">22.0 s</text>
    <text x="820" y="324" font-size="12" font-weight="700" fill="#059669">23.7×</text>
  </g>
  <!-- Row 6: S: Rust 3.547, C++ 51.852 -->
  <g font-size="12" fill="#334155">
    <text x="154" y="352" text-anchor="end">S: (8.28 M rec)</text>
    <rect x="160" y="340" width="41.3" height="18" fill="#2563eb"/>
    <rect x="160" y="362" width="603.4" height="18" fill="#ea580c"/>
    <text x="207" y="353" font-size="11" fill="#475569">3.55 s</text>
    <text x="769" y="375" font-size="11" fill="#475569">51.9 s</text>
    <text x="820" y="364" font-size="12" font-weight="700" fill="#059669">14.6×</text>
  </g>

  <!-- Separator -->
  <line x1="160" y1="390" x2="800" y2="390" stroke="#cbd5e1" stroke-width="0.5"/>

  <!-- TOTAL row: Rust 10.1 s total, C++ 161.0 s. Both still exceed 55s axis for C++. Show as callout panel. -->
  <g font-size="12" fill="#0f172a">
    <text x="154" y="410" text-anchor="end" font-weight="700">TOTAL</text>
    <rect x="160" y="398" width="320" height="18" fill="#2563eb"/>
    <text x="170" y="411" font-size="12" font-weight="700" fill="#ffffff">Rust 10.1 s   vs   C++ 161.0 s</text>
    <text x="820" y="411" font-size="13" font-weight="700" fill="#059669">16.0×</text>
  </g>

  <!-- Footer -->
  <text x="480" y="488" text-anchor="middle" font-size="11" fill="#94a3b8">Drive G excluded (15 k-record USB). Both tools wrote output to a file for fair row counting. C++ `--drives=X` is an output filter, not a load-time filter — every query re-reads every attached MFT regardless of scope.</text>
</svg>
